<?xml version="1.0" standalone="no"?>
<!DOCTYPE svg PUBLIC "-//W3C//DTD SVG 20010904//EN"
 "http://www.w3.org/TR/2001/REC-SVG-20010904/DTD/svg10.dtd">
<svg version="1.0" xmlns="http://www.w3.org/2000/svg"
 width="273.42pt" height="273.42pt" viewBox="-11.63 -9.23 273.42 273.42"
 preserveAspectRatio="xMidYMid meet">
<metadata>
Converted by Liouxiao, original authored by 王明睿, 2018
</metadata>
<g transform="translate(0.000000,236.000000) scale(0.100000,-0.100000)"
fill="#000000" stroke="none">
<path d="M1640 2047 c0 -9 -132 -34 -447 -86 -247 -41 -468 -80 -493 -87 -63
-19 -65 -19 -97 26 -22 32 -34 40 -59 40 -29 0 -33 -3 -43 -46 -14 -54 -41
-111 -82 -171 -27 -39 -29 -47 -29 -148 l0 -107 69 59 c69 58 69 58 97 155 27
90 31 98 54 98 31 0 304 44 470 75 206 39 600 94 600 83 0 -3 -18 -49 -40
-103 -58 -142 -57 -144 40 -95 75 38 85 40 167 40 81 0 89 2 115 27 17 16 28
37 28 54 0 22 -10 32 -56 59 -31 17 -67 42 -80 55 -12 13 -47 31 -76 40 -29
10 -62 24 -73 31 -25 18 -65 18 -65 1z"/>
<path d="M1210 1731 c0 -5 -48 -21 -107 -35 -170 -42 -283 -79 -283 -93 0 -10
41 -13 178 -13 170 0 182 1 253 28 41 15 85 35 99 44 l24 18 -29 30 c-25 26
-36 30 -82 30 -29 0 -53 -4 -53 -9z"/>
<path d="M1367 1497 c-6 -16 -219 -70 -502 -126 -184 -37 -202 -43 -222 -68
l-23 -28 100 -3 100 -3 0 -28 c0 -22 -8 -32 -42 -51 -23 -13 -77 -58 -121 -99
-66 -63 -92 -81 -151 -102 -54 -20 -72 -31 -74 -48 -3 -19 1 -21 57 -21 56 0
74 6 221 80 88 44 167 80 175 80 10 0 15 -10 15 -28 0 -24 -11 -36 -69 -76
-38 -26 -88 -67 -110 -92 -23 -24 -47 -44 -54 -44 -6 0 -25 9 -42 20 -34 22
-115 28 -115 8 0 -7 16 -29 36 -49 l36 -37 -81 -62 c-50 -37 -95 -64 -116 -67
-26 -4 -35 -11 -35 -24 0 -16 8 -19 51 -19 42 0 66 8 132 45 45 25 90 51 100
58 16 10 22 7 46 -21 19 -22 40 -35 65 -39 34 -5 36 -8 36 -43 0 -34 -3 -38
-38 -48 -28 -9 -390 -267 -430 -307 -3 -2 42 13 99 36 274 105 480 233 662
408 l57 55 0 -205 0 -205 -28 -27 c-35 -34 -91 -36 -174 -6 -32 12 -62 19 -65
15 -4 -4 43 -57 104 -118 126 -125 107 -123 198 -31 48 47 56 62 90 168 21 66
35 125 32 138 -4 12 -17 72 -31 132 -40 181 -74 265 -106 265 -13 0 -20 7 -20
20 0 13 7 20 20 20 13 0 20 -7 20 -19 0 -13 77 -75 255 -205 370 -270 412
-283 693 -207 78 21 145 41 149 45 3 3 -3 17 -15 29 -18 19 -39 25 -125 35
-245 29 -484 94 -662 181 -99 49 -236 137 -242 156 -2 6 75 53 170 106 126 70
198 103 269 124 110 32 110 33 38 105 -32 32 -106 80 -123 80 -2 0 -27 -29
-56 -65 -92 -115 -267 -236 -399 -276 l-43 -12 -70 68 c-38 38 -69 73 -69 76
0 4 18 20 40 37 39 29 40 29 20 47 -12 11 -20 31 -20 52 0 32 1 33 44 33 52 0
443 92 474 111 29 18 28 30 -6 62 -22 21 -38 27 -74 27 -29 0 -48 -5 -51 -13z
m-347 -524 c1 -16 7 -39 15 -53 27 -46 18 -62 -88 -168 -87 -87 -107 -102
-135 -102 -24 0 -32 5 -32 18 -1 9 -9 33 -20 52 l-18 35 126 122 c70 67 133
122 140 122 7 1 12 -11 12 -26z"/>
</g>
</svg>
