<?xml version="1.0" standalone="no"?>
<!DOCTYPE svg PUBLIC "-//W3C//DTD SVG 20010904//EN"
 "http://www.w3.org/TR/2001/REC-SVG-20010904/DTD/svg10.dtd">
<svg version="1.0" xmlns="http://www.w3.org/2000/svg"
 width="273.42pt" height="273.42pt" viewBox="-11.56 -8.76 273.42 273.42"
 preserveAspectRatio="xMidYMid meet">
<metadata>
Converted by Liouxiao, original authored by 王明睿, 2018
</metadata>
<g transform="translate(0.000000,236.000000) scale(0.100000,-0.100000)"
fill="#000000" stroke="none">
<path d="M1583 2050 c-25 -10 -63 -66 -63 -92 0 -10 -7 -18 -14 -18 -8 0 -44
-22 -80 -49 -87 -66 -183 -119 -286 -158 -65 -24 -86 -36 -88 -52 -3 -19 1
-21 57 -21 54 0 92 12 338 111 226 90 285 117 316 147 l37 36 -52 53 c-48 49
-56 53 -98 52 -25 0 -55 -4 -67 -9z"/>
<path d="M550 1837 l0 -52 104 -98 c85 -79 110 -97 135 -97 l31 0 0 88 c0 72
-3 92 -18 105 -16 15 -226 107 -243 107 -5 0 -9 -24 -9 -53z"/>
<path d="M1807 1702 c-25 -72 -36 -86 -117 -167 -70 -70 -90 -96 -90 -117 0
-16 3 -28 6 -28 17 0 128 67 199 120 49 37 107 70 152 86 l73 27 0 58 c0 46
-3 59 -15 59 -9 0 -33 9 -55 20 -22 11 -59 20 -82 20 l-43 0 -28 -78z"/>
<path d="M1370 1615 c0 -24 58 -110 97 -145 41 -36 49 -39 52 -24 2 11 12 32
23 47 l20 28 -44 48 c-41 46 -46 49 -95 50 -29 1 -53 -1 -53 -4z"/>
<path d="M1076 1498 c42 -85 69 -108 126 -108 48 0 48 0 48 34 0 28 -9 42 -51
80 -46 41 -56 46 -100 46 l-49 0 26 -52z"/>
<path d="M376 1278 c81 -139 75 -131 142 -168 l56 -30 23 22 c20 18 23 31 23
88 0 81 -7 89 -137 154 -64 32 -105 46 -132 46 l-40 0 65 -112z"/>
<path d="M1607 1244 c-47 -20 -152 -47 -318 -81 -16 -3 -30 1 -38 11 -17 20
-41 20 -77 1 -16 -8 -50 -18 -76 -21 -27 -4 -48 -9 -48 -13 0 -3 18 -18 39
-33 35 -25 48 -28 116 -28 42 0 103 6 134 14 31 8 68 17 84 20 l27 6 0 -98 0
-98 -47 -12 c-27 -6 -130 -21 -230 -32 -294 -33 -351 -46 -377 -90 l-18 -31
154 3 c134 3 173 8 312 41 87 20 169 37 182 37 l24 0 0 -175 0 -175 -39 0
c-21 0 -83 -9 -136 -20 -53 -11 -99 -20 -101 -20 -2 0 -4 24 -4 54 0 44 4 56
23 69 21 14 21 15 5 34 -10 11 -21 34 -24 51 -6 32 -7 32 -64 32 l-57 0 -6
-95 c-5 -82 -10 -103 -36 -150 -42 -73 -42 -123 -1 -163 16 -17 32 -26 36 -21
3 5 45 29 92 53 92 46 289 96 512 131 139 21 191 31 213 40 14 6 17 2 17 -19
0 -21 64 -199 77 -215 2 -3 15 7 30 21 25 25 83 157 83 188 0 9 -21 36 -46 60
-25 25 -52 59 -59 77 -7 17 -32 52 -56 77 -33 37 -48 46 -75 46 -41 0 -45 -20
-14 -80 11 -22 20 -55 20 -75 l0 -35 -140 0 -140 0 0 155 c0 149 1 155 20 155
12 0 38 9 60 20 37 19 59 20 335 20 162 0 295 4 295 9 0 22 -98 98 -142 110
-26 8 -53 20 -59 27 -9 11 -14 11 -32 0 -12 -8 -67 -24 -122 -36 -55 -11 -149
-32 -210 -46 -158 -35 -145 -41 -145 74 l0 98 124 37 c68 20 140 37 160 37 35
0 36 1 36 40 l0 40 -107 -1 c-90 -1 -118 -5 -166 -25z"/>
<path d="M635 803 c-100 -161 -147 -227 -209 -290 l-79 -83 28 -84 c36 -104
87 -166 139 -166 l33 0 28 173 c25 150 39 202 111 412 46 131 82 241 80 242
-1 2 -61 -90 -131 -204z"/>
</g>
</svg>
